<svg id="visual" viewBox="0 0 540 960" width="540" height="960" xmlns="http://www.w3.org/2000/svg" xmlns:xlink="http://www.w3.org/1999/xlink" version="1.1"><rect x="0" y="0" width="540" height="960" fill="#eee"></rect><path d="M0 191L12.8 212.8C25.7 234.7 51.3 278.3 77 314.5C102.7 350.7 128.3 379.3 154 396C179.7 412.7 205.3 417.3 231.2 414.2C257 411 283 400 308.8 363.7C334.7 327.3 360.3 265.7 386 243.7C411.7 221.7 437.3 239.3 463 246.8C488.7 254.3 514.3 251.7 527.2 250.3L540 249L540 0L527.2 0C514.3 0 488.7 0 463 0C437.3 0 411.7 0 386 0C360.3 0 334.7 0 308.8 0C283 0 257 0 231.2 0C205.3 0 179.7 0 154 0C128.3 0 102.7 0 77 0C51.3 0 25.7 0 12.8 0L0 0Z" fill="#5c8065"></path></svg>